<svg width="33" height="34" viewBox="0 0 33 34" fill="none" xmlns="http://www.w3.org/2000/svg">
<path d="M29.4863 14.722C29.1128 14.6867 28.7546 14.5519 28.4468 14.331C28.0858 14.9477 27.6872 15.5401 27.2533 16.1047C26.072 14.7509 24.7722 13.5123 23.3703 12.4043C23.1564 10.5796 22.7715 8.78055 22.2208 7.03233C23.7735 6.70398 25.376 6.7175 26.9233 7.072C27.4123 7.17171 27.8761 7.37412 28.2858 7.66659C28.6955 7.95907 29.0424 8.33536 29.3048 8.772C29.5358 9.21207 29.6674 9.70021 29.6898 10.2H29.6953C30.0817 10.2004 30.4612 10.306 30.7953 10.506C30.8175 9.70766 30.6334 8.91757 30.2618 8.21667C29.9297 7.64739 29.4872 7.1548 28.962 6.76967C28.4368 6.38454 27.8401 6.11515 27.2093 5.97833C25.4422 5.57277 23.6108 5.56697 21.8413 5.96133C20.4443 2.295 18.3378 0 15.9453 0C13.5528 0 11.4518 2.28933 10.0548 5.95C9.43641 5.83261 8.81208 5.75125 8.1848 5.70633C8.22453 5.87903 8.24483 6.05586 8.2453 6.23333C8.24604 6.43847 8.21826 6.64265 8.1628 6.83967C8.6468 6.87933 9.1528 6.94167 9.6698 7.03233C9.11913 8.78055 8.73417 10.5796 8.5203 12.4043C7.12193 13.5104 5.82575 14.7472 4.6483 16.099C2.4978 13.2713 1.6178 10.5513 2.5858 8.772C2.94173 8.14231 3.48861 7.65053 4.1423 7.37233C3.95395 7.03591 3.85175 6.65566 3.8453 6.26733C2.90979 6.63572 2.1254 7.32385 1.6233 8.21667C0.396798 10.4833 1.3593 13.719 3.9058 17C1.3593 20.281 0.396798 23.5167 1.6233 25.7833C1.95717 26.3522 2.40086 26.8444 2.92687 27.2294C3.45289 27.6144 4.05002 27.8841 4.6813 28.0217C5.49313 28.2368 6.32913 28.3397 7.1673 28.3277C8.13416 28.3203 9.09853 28.2255 10.0493 28.0443C10.3291 28.781 10.6618 29.4951 11.0448 30.1807C11.2999 29.9008 11.6197 29.6922 11.9743 29.5743C11.658 29.0045 11.3823 28.4117 11.1493 27.8007C12.7942 27.3983 14.3997 26.8406 15.9453 26.1347C17.4875 26.8396 19.0892 27.3973 20.7303 27.8007C19.5148 30.9003 17.8043 32.8667 15.9453 32.8667C15.5085 32.8632 15.0781 32.7586 14.6858 32.5607C14.5547 32.925 14.3304 33.2461 14.0368 33.49C14.6219 33.8208 15.2779 33.9961 15.9453 34C18.3378 34 20.4388 31.7107 21.8413 28.0443C22.7902 28.2255 23.7528 28.3203 24.7178 28.3277C25.5578 28.3397 26.3956 28.2368 27.2093 28.0217C27.8401 27.8848 28.4368 27.6155 28.962 27.2303C29.4872 26.8452 29.9297 26.3526 30.2618 25.7833C31.4938 23.5167 30.5258 20.2753 27.9793 16.9943C28.539 16.279 29.0429 15.5192 29.4863 14.722ZM26.5273 17.0113C25.6044 18.0832 24.6022 19.0797 23.5298 19.992C23.6068 19.023 23.6453 18.0257 23.6453 17C23.6453 15.98 23.6068 14.9827 23.5298 14.0137C24.6038 14.9303 25.606 15.9326 26.5273 17.0113ZM19.2453 23.1143C18.1784 23.7722 17.0767 24.3682 15.9453 24.8993C14.8139 24.3682 13.7121 23.7722 12.6453 23.1143C11.581 22.4616 10.5527 21.7484 9.5653 20.978C9.41887 19.6574 9.34542 18.3292 9.3453 17C9.34575 15.6728 9.41736 14.3467 9.5598 13.0277C10.5495 12.256 11.5795 11.541 12.6453 10.8857C13.7121 10.2278 14.8139 9.63183 15.9453 9.10067C17.0762 9.63291 18.1779 10.2288 19.2453 10.8857C20.3096 11.5384 21.3379 12.2516 22.3253 13.022C22.4725 14.3426 22.546 15.6708 22.5453 17C22.546 18.3292 22.4725 19.6574 22.3253 20.978C21.3378 21.7483 20.3096 22.4615 19.2453 23.1143ZM22.1108 11.4523C21.3793 10.9197 20.6111 10.4059 19.8063 9.911C18.9758 9.401 18.1361 8.93256 17.2873 8.50567C18.5273 7.98607 19.8055 7.56919 21.1098 7.259C21.5547 8.62607 21.8895 10.0286 22.1108 11.4523ZM15.9453 1.13333C17.8043 1.13333 19.5148 3.09967 20.7303 6.19933C19.089 6.60182 17.4872 7.15952 15.9453 7.86533C14.4054 7.15783 12.8055 6.59823 11.1658 6.19367C12.3758 3.09967 14.0863 1.13333 15.9453 1.13333ZM10.7808 7.26467C12.0827 7.56784 13.3577 7.98296 14.5923 8.50567C13.7508 8.93067 12.9148 9.39911 12.0843 9.911C11.2813 10.404 10.5131 10.9178 9.7798 11.4523C9.99843 10.0299 10.3333 8.62903 10.7808 7.26467ZM8.3608 14.0137C8.2838 14.9827 8.2453 15.98 8.2453 17C8.2453 18.02 8.2838 19.0173 8.3608 19.9863C7.29004 19.0721 6.28971 18.0736 5.3688 17C6.28971 15.9264 7.29004 14.9279 8.3608 14.0137ZM4.9673 26.928C4.47833 26.8283 4.01452 26.6259 3.6048 26.3334C3.19507 26.0409 2.8482 25.6646 2.5858 25.228C1.6178 23.4487 2.4978 20.7287 4.6483 17.901C5.82575 19.2528 7.12193 20.4896 8.5203 21.5957C8.73362 23.4205 9.1186 25.2196 9.6698 26.9677C8.1171 27.296 6.51457 27.2825 4.9673 26.928ZM10.7698 26.7467C10.3236 25.3765 9.99058 23.9699 9.7743 22.542C10.5058 23.0803 11.2813 23.596 12.0843 24.089C12.9148 24.599 13.7563 25.0693 14.5978 25.4943C13.3549 26.0124 12.0751 26.431 10.7698 26.7467ZM17.2928 25.4943C18.1343 25.0693 18.9758 24.599 19.8063 24.089C20.6038 23.5979 21.372 23.0841 22.1108 22.5477C21.8895 23.9714 21.5547 25.3739 21.1098 26.741C19.8075 26.4299 18.5312 26.0131 17.2928 25.4943ZM29.3048 25.228C29.0424 25.6646 28.6955 26.0409 28.2858 26.3334C27.8761 26.6259 27.4123 26.8283 26.9233 26.928C25.376 27.2825 23.7735 27.296 22.2208 26.9677C22.7746 25.2165 23.1596 23.4133 23.3703 21.5843C24.7716 20.4839 26.0681 19.2487 27.2423 17.8953C29.3873 20.723 30.2728 23.4487 29.3048 25.228Z" fill="#494949"/>
<path d="M29.6938 13.6002C30.3013 13.6002 30.7938 13.0928 30.7938 12.4668C30.7938 11.8409 30.3013 11.3335 29.6938 11.3335C29.0862 11.3335 28.5938 11.8409 28.5938 12.4668C28.5938 13.0928 29.0862 13.6002 29.6938 13.6002Z" fill="#494949"/>
<path d="M12.6469 32.8668C13.2544 32.8668 13.7469 32.3594 13.7469 31.7334C13.7469 31.1075 13.2544 30.6001 12.6469 30.6001C12.0394 30.6001 11.5469 31.1075 11.5469 31.7334C11.5469 32.3594 12.0394 32.8668 12.6469 32.8668Z" fill="#494949"/>
<path d="M15.9531 19.8332C17.4719 19.8332 18.7031 18.5646 18.7031 16.9998C18.7031 15.435 17.4719 14.1665 15.9531 14.1665C14.4343 14.1665 13.2031 15.435 13.2031 16.9998C13.2031 18.5646 14.4343 19.8332 15.9531 19.8332Z" fill="#494949"/>
<path d="M6.05313 7.36676C6.66064 7.36676 7.15313 6.85935 7.15313 6.23343C7.15313 5.60751 6.66064 5.1001 6.05313 5.1001C5.44561 5.1001 4.95312 5.60751 4.95312 6.23343C4.95312 6.85935 5.44561 7.36676 6.05313 7.36676Z" fill="#494949"/>
</svg>
